<svg xmlns="http://www.w3.org/2000/svg" viewBox="0 0 37.42 26.2"><defs><style>.cls-1{fill:#434343;}.cls-2{fill:#fff;}</style></defs><g id="Layer_2" data-name="Layer 2"><g id="Layer_1-2" data-name="Layer 1"><path class="cls-1" d="M37.42,3V23.3c-.05.15-.11.29-.16.43A3.06,3.06,0,0,1,35,26.05a3.81,3.81,0,0,0-.44.15H3a2.77,2.77,0,0,0-.26-.1A3.23,3.23,0,0,1,.09,22.68c0-6.41,0-12.82,0-19.23a3.08,3.08,0,0,1,.07-.68A3.17,3.17,0,0,1,2.67.11,1.82,1.82,0,0,0,3,0H34.52l.67.22a2.46,2.46,0,0,1,1.63,1.3C37,2,37.22,2.48,37.42,3Z"/><path class="cls-1" d="M3.38,2.33l0,.1c.52.56,1,1.13,1.57,1.68C5.77,5,6.62,5.85,7.47,6.73L10,9.34c1,1,1.93,2,2.91,3,.62.64,1.26,1.26,1.88,1.9,1.08,1.11,2.14,2.25,3.22,3.36a1,1,0,0,0,1.51-.06c.25-.27.49-.55.75-.82l2.46-2.54,2.8-2.87L27.8,9l2.72-2.8L34,2.64a2.33,2.33,0,0,0,.22-.3c-.44,0-.79-.09-1.15-.09H4.41C4.07,2.25,3.73,2.3,3.38,2.33Z"/><path class="cls-1" d="M34.17,23.85,34,23.6c-.53-.56-1.06-1.12-1.6-1.67l-2.54-2.61c-1.35-1.38-2.69-2.76-4.06-4.12a14.12,14.12,0,0,0-1.33-1.1,2.8,2.8,0,0,0-.36.38c-1.3,1.32-2.58,2.66-3.9,4a2,2,0,0,1-2.88,0c-.6-.57-1.16-1.19-1.74-1.78s-1.4-1.39-2.1-2.1c-.2-.2-.39-.43-.61-.69-.21.24-.37.45-.55.64L9.79,17.15,7.28,19.74,3.53,23.56l-.29.33a4.49,4.49,0,0,0,.47.07H33C33.35,24,33.73,23.89,34.17,23.85Z"/><path class="cls-1" d="M2.37,22.91l.1,0c.08-.07.17-.13.24-.2.3-.32.58-.64.88-.95L6,19.36c.87-.88,1.73-1.77,2.6-2.66,1.11-1.15,2.23-2.29,3.35-3.44l.15-.18L2.47,3.23l-.1,0Z"/><path class="cls-1" d="M35.05,3.21a4.2,4.2,0,0,0-.34.31c-.29.3-.56.62-.85.92L31.7,6.67,29,9.44l-3.41,3.49a1.14,1.14,0,0,0-.15.19L35,23l.11-.05c0-.28.06-.57.06-.85q0-6.31,0-12.63c0-1.72,0-3.45,0-5.17C35.15,3.94,35.09,3.62,35.05,3.21Z"/><path class="cls-2" d="M3,0a1.82,1.82,0,0,1-.3.11A3.17,3.17,0,0,0,.15,2.77a3.08,3.08,0,0,0-.07.68c0,6.41,0,12.82,0,19.23A3.23,3.23,0,0,0,2.71,26.1a2.77,2.77,0,0,1,.26.1H0V0Z"/><path class="cls-2" d="M37.42,3c-.2-.49-.39-1-.6-1.45A2.46,2.46,0,0,0,35.19.22L34.52,0h2.9Z"/><path class="cls-2" d="M34.52,26.2a3.81,3.81,0,0,1,.44-.15,3.06,3.06,0,0,0,2.3-2.32c.05-.14.11-.28.16-.43v2.9Z"/><path class="cls-2" d="M3.38,2.33c.35,0,.69-.08,1-.08H33c.36,0,.71.06,1.15.09a2.33,2.33,0,0,1-.22.3L30.52,6.15,27.8,9l-2.26,2.33-2.8,2.87-2.46,2.54c-.26.27-.5.55-.75.82a1,1,0,0,1-1.51.06c-1.08-1.11-2.14-2.25-3.22-3.36-.62-.64-1.26-1.26-1.88-1.9-1-1-1.94-2-2.91-3L7.47,6.73C6.62,5.85,5.77,5,4.93,4.11,4.4,3.56,3.88,3,3.36,2.43Z"/><path class="cls-2" d="M34.17,23.85c-.44,0-.82.1-1.2.1H3.71a4.49,4.49,0,0,1-.47-.07l.29-.33,3.75-3.82,2.51-2.59,2.54-2.61c.18-.19.34-.4.55-.64.22.26.41.49.61.69.7.71,1.41,1.4,2.1,2.1s1.14,1.21,1.74,1.78a2,2,0,0,0,2.88,0c1.32-1.3,2.6-2.64,3.9-4a2.8,2.8,0,0,1,.36-.38,14.12,14.12,0,0,1,1.33,1.1c1.37,1.36,2.71,2.74,4.06,4.12l2.54,2.61c.54.55,1.07,1.11,1.6,1.67Z"/><path class="cls-2" d="M2.37,22.91V3.27l.1,0,9.58,9.85-.15.18c-1.12,1.15-2.24,2.29-3.35,3.44-.87.89-1.73,1.78-2.6,2.66L3.59,21.8c-.3.31-.58.63-.88.95-.07.07-.16.13-.24.2Z"/><path class="cls-2" d="M35.05,3.21c0,.41.1.73.1,1,0,1.72,0,3.45,0,5.17q0,6.32,0,12.63c0,.28,0,.57-.06.85L35,23l-9.56-9.84a1.14,1.14,0,0,1,.15-.19L29,9.44l2.7-2.77,2.16-2.23c.29-.3.56-.62.85-.92A4.2,4.2,0,0,1,35.05,3.21Z"/></g></g></svg>